<svg width="380" height="54" viewBox="0 0 380 54" fill="none" xmlns="http://www.w3.org/2000/svg">
<rect x="0.5" y="0.5" width="379" height="53" rx="3.5" stroke="#D0CFCF"/>
<path d="M0.5 4C0.5 2.067 2.067 0.5 4 0.5H82.5V53.5H4C2.06701 53.5 0.5 51.933 0.5 50V4Z" stroke="black" stroke-opacity="0.87"/>
<path d="M21.1759 32.144C19.6933 32.144 18.5679 31.7547 17.7999 30.976C17.0319 30.1867 16.6479 29.04 16.6479 27.536V21.28C16.6479 20.832 16.8666 20.608 17.3039 20.608C17.7413 20.608 17.9599 20.832 17.9599 21.28V27.472C17.9599 29.808 19.0319 30.976 21.1759 30.976C23.2986 30.976 24.3599 29.808 24.3599 27.472V21.28C24.3599 20.832 24.5839 20.608 25.0319 20.608C25.4586 20.608 25.6719 20.832 25.6719 21.28V27.536C25.6719 29.04 25.2879 30.1867 24.5199 30.976C23.7626 31.7547 22.6479 32.144 21.1759 32.144ZM28.8326 34.992C28.4059 34.992 28.1926 34.7733 28.1926 34.336V24.768C28.1926 24.3307 28.4006 24.112 28.8166 24.112C29.2539 24.112 29.4726 24.3307 29.4726 24.768V25.6C29.6966 25.1307 30.0432 24.7627 30.5126 24.496C30.9819 24.2187 31.5206 24.08 32.1286 24.08C32.8219 24.08 33.4246 24.2453 33.9366 24.576C34.4592 24.896 34.8592 25.36 35.1366 25.968C35.4246 26.5653 35.5686 27.28 35.5686 28.112C35.5686 28.9333 35.4246 29.648 35.1366 30.256C34.8592 30.8533 34.4592 31.3173 33.9366 31.648C33.4246 31.9787 32.8219 32.144 32.1286 32.144C31.5312 32.144 30.9979 32.0107 30.5286 31.744C30.0592 31.4773 29.7126 31.1093 29.4886 30.64V34.336C29.4886 34.7733 29.2699 34.992 28.8326 34.992ZM31.8566 31.104C32.5819 31.104 33.1632 30.848 33.6006 30.336C34.0379 29.8133 34.2566 29.072 34.2566 28.112C34.2566 27.1413 34.0379 26.4 33.6006 25.888C33.1632 25.376 32.5819 25.12 31.8566 25.12C31.1312 25.12 30.5499 25.376 30.1126 25.888C29.6752 26.4 29.4566 27.1413 29.4566 28.112C29.4566 29.072 29.6752 29.8133 30.1126 30.336C30.5499 30.848 31.1312 31.104 31.8566 31.104ZM39.8887 32.144C39.1207 32.144 38.534 31.9147 38.1287 31.456C37.7234 30.9867 37.5207 30.3093 37.5207 29.424V21.264C37.5207 20.8267 37.734 20.608 38.1607 20.608C38.598 20.608 38.8167 20.8267 38.8167 21.264V29.328C38.8167 30.4693 39.27 31.04 40.1767 31.04C40.2727 31.04 40.358 31.0347 40.4327 31.024C40.5074 31.0133 40.582 31.008 40.6567 31.008C40.774 30.9973 40.854 31.024 40.8967 31.088C40.95 31.152 40.9767 31.28 40.9767 31.472C40.9767 31.8347 40.7954 32.0427 40.4327 32.096C40.3474 32.1173 40.2567 32.128 40.1607 32.128C40.0647 32.1387 39.974 32.144 39.8887 32.144ZM45.4089 32.144C44.6516 32.144 43.9956 31.9787 43.4409 31.648C42.8863 31.3173 42.4543 30.8533 42.1449 30.256C41.8463 29.648 41.6969 28.9333 41.6969 28.112C41.6969 27.2907 41.8463 26.5813 42.1449 25.984C42.4543 25.376 42.8863 24.9067 43.4409 24.576C43.9956 24.2453 44.6516 24.08 45.4089 24.08C46.1556 24.08 46.8063 24.2453 47.3609 24.576C47.9263 24.9067 48.3583 25.376 48.6569 25.984C48.9663 26.5813 49.1209 27.2907 49.1209 28.112C49.1209 28.9333 48.9663 29.648 48.6569 30.256C48.3583 30.8533 47.9263 31.3173 47.3609 31.648C46.8063 31.9787 46.1556 32.144 45.4089 32.144ZM45.4089 31.104C46.1343 31.104 46.7156 30.848 47.1529 30.336C47.5903 29.8133 47.8089 29.072 47.8089 28.112C47.8089 27.1413 47.5903 26.4 47.1529 25.888C46.7156 25.376 46.1343 25.12 45.4089 25.12C44.6729 25.12 44.0863 25.376 43.6489 25.888C43.2223 26.4 43.0089 27.1413 43.0089 28.112C43.0089 29.072 43.2223 29.8133 43.6489 30.336C44.0863 30.848 44.6729 31.104 45.4089 31.104ZM53.5156 32.144C52.9822 32.144 52.5022 32.0427 52.0756 31.84C51.6596 31.6267 51.3289 31.3387 51.0836 30.976C50.8382 30.6133 50.7156 30.208 50.7156 29.76C50.7156 29.1947 50.8596 28.7467 51.1476 28.416C51.4462 28.0853 51.9316 27.8507 52.6036 27.712C53.2862 27.5627 54.2142 27.488 55.3876 27.488H55.8996V26.992C55.8996 26.3307 55.7609 25.856 55.4836 25.568C55.2169 25.2693 54.7849 25.12 54.1876 25.12C53.8142 25.12 53.4356 25.168 53.0516 25.264C52.6782 25.36 52.2889 25.5147 51.8836 25.728C51.7022 25.824 51.5476 25.8453 51.4196 25.792C51.3022 25.728 51.2169 25.632 51.1636 25.504C51.1209 25.3653 51.1209 25.2267 51.1636 25.088C51.2169 24.9387 51.3236 24.8267 51.4836 24.752C51.9422 24.5173 52.4009 24.3467 52.8596 24.24C53.3289 24.1333 53.7716 24.08 54.1876 24.08C55.1902 24.08 55.9316 24.3253 56.4116 24.816C56.9022 25.3067 57.1476 26.0693 57.1476 27.104V31.44C57.1476 31.888 56.9502 32.112 56.5556 32.112C56.1396 32.112 55.9316 31.888 55.9316 31.44V30.656C55.7289 31.1147 55.4142 31.4773 54.9876 31.744C54.5716 32.0107 54.0809 32.144 53.5156 32.144ZM53.7236 31.168C54.3636 31.168 54.8862 30.9493 55.2916 30.512C55.6969 30.064 55.8996 29.4987 55.8996 28.816V28.336H55.4036C54.5396 28.336 53.8569 28.3787 53.3556 28.464C52.8649 28.5387 52.5182 28.6773 52.3156 28.88C52.1236 29.072 52.0276 29.3387 52.0276 29.68C52.0276 30.1173 52.1769 30.4747 52.4756 30.752C52.7849 31.0293 53.2009 31.168 53.7236 31.168ZM62.5119 32.144C61.8186 32.144 61.2106 31.9787 60.6879 31.648C60.1759 31.3173 59.7759 30.8533 59.4879 30.256C59.2106 29.648 59.0719 28.9333 59.0719 28.112C59.0719 27.28 59.2106 26.5653 59.4879 25.968C59.7759 25.36 60.1759 24.896 60.6879 24.576C61.2106 24.2453 61.8186 24.08 62.5119 24.08C63.1199 24.08 63.6533 24.2133 64.1119 24.48C64.5813 24.7467 64.9279 25.1147 65.1519 25.584V21.264C65.1519 20.8267 65.3706 20.608 65.8079 20.608C66.2346 20.608 66.4479 20.8267 66.4479 21.264V31.44C66.4479 31.888 66.2346 32.112 65.8079 32.112C65.3813 32.112 65.1679 31.888 65.1679 31.44V30.608C64.9333 31.088 64.5813 31.4667 64.1119 31.744C63.6533 32.0107 63.1199 32.144 62.5119 32.144ZM62.7839 31.104C63.5093 31.104 64.0906 30.848 64.5279 30.336C64.9653 29.8133 65.1839 29.072 65.1839 28.112C65.1839 27.1413 64.9653 26.4 64.5279 25.888C64.0906 25.376 63.5093 25.12 62.7839 25.12C62.0479 25.12 61.4613 25.376 61.0239 25.888C60.5973 26.4 60.3839 27.1413 60.3839 28.112C60.3839 29.072 60.5973 29.8133 61.0239 30.336C61.4613 30.848 62.0479 31.104 62.7839 31.104Z" fill="black" fill-opacity="0.87"/>
<path d="M104.84 32.144C103.357 32.144 102.232 31.7547 101.464 30.976C100.696 30.1867 100.312 29.04 100.312 27.536V21.28C100.312 20.832 100.531 20.608 100.968 20.608C101.405 20.608 101.624 20.832 101.624 21.28V27.472C101.624 29.808 102.696 30.976 104.84 30.976C106.963 30.976 108.024 29.808 108.024 27.472V21.28C108.024 20.832 108.248 20.608 108.696 20.608C109.123 20.608 109.336 20.832 109.336 21.28V27.536C109.336 29.04 108.952 30.1867 108.184 30.976C107.427 31.7547 106.312 32.144 104.84 32.144ZM112.497 34.992C112.07 34.992 111.857 34.7733 111.857 34.336V24.768C111.857 24.3307 112.065 24.112 112.481 24.112C112.918 24.112 113.137 24.3307 113.137 24.768V25.6C113.361 25.1307 113.707 24.7627 114.177 24.496C114.646 24.2187 115.185 24.08 115.793 24.08C116.486 24.08 117.089 24.2453 117.601 24.576C118.123 24.896 118.523 25.36 118.801 25.968C119.089 26.5653 119.233 27.28 119.233 28.112C119.233 28.9333 119.089 29.648 118.801 30.256C118.523 30.8533 118.123 31.3173 117.601 31.648C117.089 31.9787 116.486 32.144 115.793 32.144C115.195 32.144 114.662 32.0107 114.193 31.744C113.723 31.4773 113.377 31.1093 113.153 30.64V34.336C113.153 34.7733 112.934 34.992 112.497 34.992ZM115.521 31.104C116.246 31.104 116.827 30.848 117.265 30.336C117.702 29.8133 117.921 29.072 117.921 28.112C117.921 27.1413 117.702 26.4 117.265 25.888C116.827 25.376 116.246 25.12 115.521 25.12C114.795 25.12 114.214 25.376 113.777 25.888C113.339 26.4 113.121 27.1413 113.121 28.112C113.121 29.072 113.339 29.8133 113.777 30.336C114.214 30.848 114.795 31.104 115.521 31.104ZM123.553 32.144C122.785 32.144 122.198 31.9147 121.793 31.456C121.387 30.9867 121.185 30.3093 121.185 29.424V21.264C121.185 20.8267 121.398 20.608 121.825 20.608C122.262 20.608 122.481 20.8267 122.481 21.264V29.328C122.481 30.4693 122.934 31.04 123.841 31.04C123.937 31.04 124.022 31.0347 124.097 31.024C124.171 31.0133 124.246 31.008 124.321 31.008C124.438 30.9973 124.518 31.024 124.561 31.088C124.614 31.152 124.641 31.28 124.641 31.472C124.641 31.8347 124.459 32.0427 124.097 32.096C124.011 32.1173 123.921 32.128 123.825 32.128C123.729 32.1387 123.638 32.144 123.553 32.144ZM129.073 32.144C128.316 32.144 127.66 31.9787 127.105 31.648C126.55 31.3173 126.118 30.8533 125.809 30.256C125.51 29.648 125.361 28.9333 125.361 28.112C125.361 27.2907 125.51 26.5813 125.809 25.984C126.118 25.376 126.55 24.9067 127.105 24.576C127.66 24.2453 128.316 24.08 129.073 24.08C129.82 24.08 130.47 24.2453 131.025 24.576C131.59 24.9067 132.022 25.376 132.321 25.984C132.63 26.5813 132.785 27.2907 132.785 28.112C132.785 28.9333 132.63 29.648 132.321 30.256C132.022 30.8533 131.59 31.3173 131.025 31.648C130.47 31.9787 129.82 32.144 129.073 32.144ZM129.073 31.104C129.798 31.104 130.38 30.848 130.817 30.336C131.254 29.8133 131.473 29.072 131.473 28.112C131.473 27.1413 131.254 26.4 130.817 25.888C130.38 25.376 129.798 25.12 129.073 25.12C128.337 25.12 127.75 25.376 127.313 25.888C126.886 26.4 126.673 27.1413 126.673 28.112C126.673 29.072 126.886 29.8133 127.313 30.336C127.75 30.848 128.337 31.104 129.073 31.104ZM137.18 32.144C136.646 32.144 136.166 32.0427 135.74 31.84C135.324 31.6267 134.993 31.3387 134.748 30.976C134.502 30.6133 134.38 30.208 134.38 29.76C134.38 29.1947 134.524 28.7467 134.812 28.416C135.11 28.0853 135.596 27.8507 136.268 27.712C136.95 27.5627 137.878 27.488 139.052 27.488H139.564V26.992C139.564 26.3307 139.425 25.856 139.148 25.568C138.881 25.2693 138.449 25.12 137.852 25.12C137.478 25.12 137.1 25.168 136.716 25.264C136.342 25.36 135.953 25.5147 135.548 25.728C135.366 25.824 135.212 25.8453 135.084 25.792C134.966 25.728 134.881 25.632 134.828 25.504C134.785 25.3653 134.785 25.2267 134.828 25.088C134.881 24.9387 134.988 24.8267 135.148 24.752C135.606 24.5173 136.065 24.3467 136.524 24.24C136.993 24.1333 137.436 24.08 137.852 24.08C138.854 24.08 139.596 24.3253 140.076 24.816C140.566 25.3067 140.812 26.0693 140.812 27.104V31.44C140.812 31.888 140.614 32.112 140.22 32.112C139.804 32.112 139.596 31.888 139.596 31.44V30.656C139.393 31.1147 139.078 31.4773 138.652 31.744C138.236 32.0107 137.745 32.144 137.18 32.144ZM137.388 31.168C138.028 31.168 138.55 30.9493 138.956 30.512C139.361 30.064 139.564 29.4987 139.564 28.816V28.336H139.068C138.204 28.336 137.521 28.3787 137.02 28.464C136.529 28.5387 136.182 28.6773 135.98 28.88C135.788 29.072 135.692 29.3387 135.692 29.68C135.692 30.1173 135.841 30.4747 136.14 30.752C136.449 31.0293 136.865 31.168 137.388 31.168ZM146.176 32.144C145.483 32.144 144.875 31.9787 144.352 31.648C143.84 31.3173 143.44 30.8533 143.152 30.256C142.875 29.648 142.736 28.9333 142.736 28.112C142.736 27.28 142.875 26.5653 143.152 25.968C143.44 25.36 143.84 24.896 144.352 24.576C144.875 24.2453 145.483 24.08 146.176 24.08C146.784 24.08 147.317 24.2133 147.776 24.48C148.245 24.7467 148.592 25.1147 148.816 25.584V21.264C148.816 20.8267 149.035 20.608 149.472 20.608C149.899 20.608 150.112 20.8267 150.112 21.264V31.44C150.112 31.888 149.899 32.112 149.472 32.112C149.045 32.112 148.832 31.888 148.832 31.44V30.608C148.597 31.088 148.245 31.4667 147.776 31.744C147.317 32.0107 146.784 32.144 146.176 32.144ZM146.448 31.104C147.173 31.104 147.755 30.848 148.192 30.336C148.629 29.8133 148.848 29.072 148.848 28.112C148.848 27.1413 148.629 26.4 148.192 25.888C147.755 25.376 147.173 25.12 146.448 25.12C145.712 25.12 145.125 25.376 144.688 25.888C144.261 26.4 144.048 27.1413 144.048 28.112C144.048 29.072 144.261 29.8133 144.688 30.336C145.125 30.848 145.712 31.104 146.448 31.104ZM158.397 34.992C158.152 34.992 157.986 34.896 157.901 34.704C157.816 34.5227 157.821 34.3147 157.917 34.08L158.893 31.872L155.949 25.024C155.842 24.7787 155.837 24.5653 155.933 24.384C156.04 24.2027 156.237 24.112 156.525 24.112C156.824 24.112 157.042 24.2827 157.181 24.624L159.597 30.528L162.029 24.624C162.114 24.432 162.205 24.2987 162.301 24.224C162.397 24.1493 162.536 24.112 162.717 24.112C162.962 24.112 163.128 24.2027 163.213 24.384C163.298 24.5653 163.293 24.7733 163.197 25.008L159.101 34.48C159.016 34.672 158.92 34.8053 158.813 34.88C158.717 34.9547 158.578 34.992 158.397 34.992ZM168.011 32.144C167.253 32.144 166.597 31.9787 166.043 31.648C165.488 31.3173 165.056 30.8533 164.747 30.256C164.448 29.648 164.299 28.9333 164.299 28.112C164.299 27.2907 164.448 26.5813 164.747 25.984C165.056 25.376 165.488 24.9067 166.043 24.576C166.597 24.2453 167.253 24.08 168.011 24.08C168.757 24.08 169.408 24.2453 169.963 24.576C170.528 24.9067 170.96 25.376 171.259 25.984C171.568 26.5813 171.723 27.2907 171.723 28.112C171.723 28.9333 171.568 29.648 171.259 30.256C170.96 30.8533 170.528 31.3173 169.963 31.648C169.408 31.9787 168.757 32.144 168.011 32.144ZM168.011 31.104C168.736 31.104 169.317 30.848 169.755 30.336C170.192 29.8133 170.411 29.072 170.411 28.112C170.411 27.1413 170.192 26.4 169.755 25.888C169.317 25.376 168.736 25.12 168.011 25.12C167.275 25.12 166.688 25.376 166.251 25.888C165.824 26.4 165.611 27.1413 165.611 28.112C165.611 29.072 165.824 29.8133 166.251 30.336C166.688 30.848 167.275 31.104 168.011 31.104ZM176.421 32.144C174.554 32.144 173.621 31.1147 173.621 29.056V24.768C173.621 24.3307 173.834 24.112 174.261 24.112C174.698 24.112 174.917 24.3307 174.917 24.768V29.04C174.917 29.7333 175.056 30.2453 175.333 30.576C175.621 30.9067 176.069 31.072 176.677 31.072C177.338 31.072 177.877 30.8533 178.293 30.416C178.709 29.968 178.917 29.376 178.917 28.64V24.768C178.917 24.3307 179.136 24.112 179.573 24.112C180 24.112 180.213 24.3307 180.213 24.768V31.44C180.213 31.888 180.005 32.112 179.589 32.112C179.162 32.112 178.949 31.888 178.949 31.44V30.688C178.704 31.1573 178.357 31.52 177.909 31.776C177.472 32.0213 176.976 32.144 176.421 32.144ZM183.294 32.112C182.857 32.112 182.638 31.888 182.638 31.44V24.768C182.638 24.3307 182.846 24.112 183.262 24.112C183.689 24.112 183.902 24.3307 183.902 24.768V25.616C184.115 25.1253 184.446 24.752 184.894 24.496C185.342 24.2293 185.875 24.0853 186.494 24.064C186.835 24.032 187.017 24.2027 187.038 24.576C187.07 24.9493 186.878 25.1573 186.462 25.2L186.206 25.232C185.47 25.296 184.91 25.5307 184.526 25.936C184.142 26.3307 183.95 26.8747 183.95 27.568V31.44C183.95 31.888 183.731 32.112 183.294 32.112ZM193.137 34.992C192.711 34.992 192.497 34.7733 192.497 34.336V24.768C192.497 24.3307 192.705 24.112 193.121 24.112C193.559 24.112 193.777 24.3307 193.777 24.768V25.6C194.001 25.1307 194.348 24.7627 194.817 24.496C195.287 24.2187 195.825 24.08 196.433 24.08C197.127 24.08 197.729 24.2453 198.241 24.576C198.764 24.896 199.164 25.36 199.441 25.968C199.729 26.5653 199.873 27.28 199.873 28.112C199.873 28.9333 199.729 29.648 199.441 30.256C199.164 30.8533 198.764 31.3173 198.241 31.648C197.729 31.9787 197.127 32.144 196.433 32.144C195.836 32.144 195.303 32.0107 194.833 31.744C194.364 31.4773 194.017 31.1093 193.793 30.64V34.336C193.793 34.7733 193.575 34.992 193.137 34.992ZM196.161 31.104C196.887 31.104 197.468 30.848 197.905 30.336C198.343 29.8133 198.561 29.072 198.561 28.112C198.561 27.1413 198.343 26.4 197.905 25.888C197.468 25.376 196.887 25.12 196.161 25.12C195.436 25.12 194.855 25.376 194.417 25.888C193.98 26.4 193.761 27.1413 193.761 28.112C193.761 29.072 193.98 29.8133 194.417 30.336C194.855 30.848 195.436 31.104 196.161 31.104ZM202.465 32.112C202.039 32.112 201.825 31.888 201.825 31.44V21.264C201.825 20.8267 202.039 20.608 202.465 20.608C202.903 20.608 203.121 20.8267 203.121 21.264V25.504C203.377 25.0347 203.735 24.6827 204.193 24.448C204.663 24.2027 205.185 24.08 205.761 24.08C207.607 24.08 208.529 25.104 208.529 27.152V31.44C208.529 31.888 208.316 32.112 207.889 32.112C207.452 32.112 207.233 31.888 207.233 31.44V27.232C207.233 26.5067 207.089 25.9787 206.801 25.648C206.524 25.3067 206.076 25.136 205.457 25.136C204.743 25.136 204.172 25.36 203.745 25.808C203.329 26.2453 203.121 26.832 203.121 27.568V31.44C203.121 31.888 202.903 32.112 202.465 32.112ZM214.151 32.144C213.394 32.144 212.738 31.9787 212.183 31.648C211.628 31.3173 211.196 30.8533 210.887 30.256C210.588 29.648 210.439 28.9333 210.439 28.112C210.439 27.2907 210.588 26.5813 210.887 25.984C211.196 25.376 211.628 24.9067 212.183 24.576C212.738 24.2453 213.394 24.08 214.151 24.08C214.898 24.08 215.548 24.2453 216.103 24.576C216.668 24.9067 217.1 25.376 217.399 25.984C217.708 26.5813 217.863 27.2907 217.863 28.112C217.863 28.9333 217.708 29.648 217.399 30.256C217.1 30.8533 216.668 31.3173 216.103 31.648C215.548 31.9787 214.898 32.144 214.151 32.144ZM214.151 31.104C214.876 31.104 215.458 30.848 215.895 30.336C216.332 29.8133 216.551 29.072 216.551 28.112C216.551 27.1413 216.332 26.4 215.895 25.888C215.458 25.376 214.876 25.12 214.151 25.12C213.415 25.12 212.828 25.376 212.391 25.888C211.964 26.4 211.751 27.1413 211.751 28.112C211.751 29.072 211.964 29.8133 212.391 30.336C212.828 30.848 213.415 31.104 214.151 31.104ZM222.852 32.144C221.934 32.144 221.246 31.904 220.788 31.424C220.329 30.9333 220.1 30.2293 220.1 29.312V25.232H219.028C218.654 25.232 218.468 25.0613 218.468 24.72C218.468 24.3893 218.654 24.224 219.028 24.224H220.1V22.384C220.1 21.9467 220.318 21.728 220.756 21.728C221.182 21.728 221.396 21.9467 221.396 22.384V24.224H223.412C223.785 24.224 223.972 24.3893 223.972 24.72C223.972 25.0613 223.785 25.232 223.412 25.232H221.396V29.184C221.396 29.792 221.524 30.256 221.78 30.576C222.036 30.8853 222.452 31.04 223.028 31.04C223.23 31.04 223.401 31.0187 223.54 30.976C223.678 30.9333 223.801 30.912 223.908 30.912C224.004 30.9013 224.084 30.9333 224.148 31.008C224.212 31.0827 224.244 31.2107 224.244 31.392C224.244 31.52 224.217 31.6373 224.164 31.744C224.121 31.8507 224.041 31.9253 223.924 31.968C223.796 32.0107 223.625 32.048 223.412 32.08C223.209 32.1227 223.022 32.144 222.852 32.144ZM228.479 32.144C227.722 32.144 227.066 31.9787 226.511 31.648C225.957 31.3173 225.525 30.8533 225.215 30.256C224.917 29.648 224.767 28.9333 224.767 28.112C224.767 27.2907 224.917 26.5813 225.215 25.984C225.525 25.376 225.957 24.9067 226.511 24.576C227.066 24.2453 227.722 24.08 228.479 24.08C229.226 24.08 229.877 24.2453 230.431 24.576C230.997 24.9067 231.429 25.376 231.727 25.984C232.037 26.5813 232.191 27.2907 232.191 28.112C232.191 28.9333 232.037 29.648 231.727 30.256C231.429 30.8533 230.997 31.3173 230.431 31.648C229.877 31.9787 229.226 32.144 228.479 32.144ZM228.479 31.104C229.205 31.104 229.786 30.848 230.223 30.336C230.661 29.8133 230.879 29.072 230.879 28.112C230.879 27.1413 230.661 26.4 230.223 25.888C229.786 25.376 229.205 25.12 228.479 25.12C227.743 25.12 227.157 25.376 226.719 25.888C226.293 26.4 226.079 27.1413 226.079 28.112C226.079 29.072 226.293 29.8133 226.719 30.336C227.157 30.848 227.743 31.104 228.479 31.104Z" fill="#7E7E7E"/>
</svg>
