<svg width="328" height="54" viewBox="0 0 328 54" fill="none" xmlns="http://www.w3.org/2000/svg">
<rect x="0.5" y="0.5" width="327" height="53" rx="3.5" fill="#F8F8F8" stroke="#D0CFCF"/>
<path d="M0.5 4C0.5 2.067 2.067 0.5 4 0.5H82.5V53.5H4C2.06701 53.5 0.5 51.933 0.5 50V4Z" stroke="black" stroke-opacity="0.87"/>
<path d="M21.1759 32.144C20.4293 32.144 19.7733 32.048 19.2079 31.856C18.6533 31.6533 18.1839 31.36 17.7999 30.976C17.4159 30.5813 17.1279 30.096 16.9359 29.52C16.7439 28.944 16.6479 28.2827 16.6479 27.536V21.28C16.6479 21.056 16.7013 20.8907 16.8079 20.784C16.9253 20.6667 17.0906 20.608 17.3039 20.608C17.5173 20.608 17.6773 20.6667 17.7839 20.784C17.9013 20.8907 17.9599 21.056 17.9599 21.28V27.472C17.9599 28.6453 18.2319 29.5253 18.7759 30.112C19.3199 30.688 20.1199 30.976 21.1759 30.976C22.2319 30.976 23.0266 30.688 23.5599 30.112C24.0933 29.5253 24.3599 28.6453 24.3599 27.472V21.28C24.3599 21.056 24.4186 20.8907 24.5359 20.784C24.6533 20.6667 24.8186 20.608 25.0319 20.608C25.2346 20.608 25.3893 20.6667 25.4959 20.784C25.6133 20.8907 25.6719 21.056 25.6719 21.28V27.536C25.6719 28.528 25.5013 29.3707 25.1599 30.064C24.8293 30.7573 24.3279 31.28 23.6559 31.632C22.9839 31.9733 22.1573 32.144 21.1759 32.144ZM28.8326 34.992C28.6192 34.992 28.4592 34.9333 28.3526 34.816C28.2459 34.7093 28.1926 34.5493 28.1926 34.336V24.768C28.1926 24.5547 28.2459 24.3947 28.3526 24.288C28.4592 24.1707 28.6139 24.112 28.8166 24.112C29.0299 24.112 29.1899 24.1707 29.2966 24.288C29.4139 24.3947 29.4726 24.5547 29.4726 24.768V26.288L29.2966 26.064C29.4672 25.456 29.8032 24.976 30.3046 24.624C30.8166 24.2613 31.4246 24.08 32.1286 24.08C32.8219 24.08 33.4246 24.2453 33.9366 24.576C34.4592 24.896 34.8592 25.36 35.1366 25.968C35.4246 26.5653 35.5686 27.28 35.5686 28.112C35.5686 28.9333 35.4246 29.648 35.1366 30.256C34.8592 30.8533 34.4646 31.3173 33.9526 31.648C33.4406 31.9787 32.8326 32.144 32.1286 32.144C31.4246 32.144 30.8219 31.968 30.3206 31.616C29.8192 31.2533 29.4779 30.7733 29.2966 30.176H29.4886V34.336C29.4886 34.5493 29.4299 34.7093 29.3126 34.816C29.1952 34.9333 29.0352 34.992 28.8326 34.992ZM31.8566 31.104C32.3472 31.104 32.7686 30.9867 33.1206 30.752C33.4832 30.5173 33.7606 30.176 33.9526 29.728C34.1552 29.28 34.2566 28.7413 34.2566 28.112C34.2566 27.1413 34.0379 26.4 33.6006 25.888C33.1739 25.376 32.5926 25.12 31.8566 25.12C31.3766 25.12 30.9552 25.2373 30.5926 25.472C30.2299 25.696 29.9472 26.032 29.7446 26.48C29.5526 26.9173 29.4566 27.4613 29.4566 28.112C29.4566 29.072 29.6752 29.8133 30.1126 30.336C30.5499 30.848 31.1312 31.104 31.8566 31.104ZM39.8887 32.144C39.1207 32.144 38.534 31.9093 38.1287 31.44C37.7234 30.9707 37.5207 30.2987 37.5207 29.424V21.264C37.5207 21.0507 37.574 20.8907 37.6807 20.784C37.7874 20.6667 37.9474 20.608 38.1607 20.608C38.3634 20.608 38.5234 20.6667 38.6407 20.784C38.758 20.8907 38.8167 21.0507 38.8167 21.264V29.328C38.8167 29.904 38.9287 30.336 39.1527 30.624C39.3874 30.9013 39.7287 31.04 40.1767 31.04C40.2727 31.04 40.358 31.0347 40.4327 31.024C40.5074 31.0133 40.582 31.008 40.6567 31.008C40.774 30.9973 40.854 31.024 40.8967 31.088C40.95 31.152 40.9767 31.28 40.9767 31.472C40.9767 31.664 40.934 31.808 40.8487 31.904C40.7634 32 40.6247 32.064 40.4327 32.096C40.3474 32.1067 40.2567 32.1173 40.1607 32.128C40.0647 32.1387 39.974 32.144 39.8887 32.144ZM45.4089 32.144C44.6516 32.144 43.9956 31.9787 43.4409 31.648C42.8863 31.3173 42.4543 30.8533 42.1449 30.256C41.8463 29.648 41.6969 28.9333 41.6969 28.112C41.6969 27.4933 41.7823 26.9387 41.9529 26.448C42.1236 25.9467 42.3743 25.52 42.7049 25.168C43.0356 24.816 43.4249 24.5493 43.8729 24.368C44.3316 24.176 44.8436 24.08 45.4089 24.08C46.1663 24.08 46.8223 24.2453 47.3769 24.576C47.9316 24.9067 48.3583 25.376 48.6569 25.984C48.9663 26.5813 49.1209 27.2907 49.1209 28.112C49.1209 28.7307 49.0356 29.2853 48.8649 29.776C48.6943 30.2667 48.4436 30.6933 48.1129 31.056C47.7823 31.408 47.3876 31.68 46.9289 31.872C46.4809 32.0533 45.9743 32.144 45.4089 32.144ZM45.4089 31.104C45.8889 31.104 46.3103 30.9867 46.6729 30.752C47.0356 30.5173 47.3129 30.176 47.5049 29.728C47.7076 29.28 47.8089 28.7413 47.8089 28.112C47.8089 27.1413 47.5903 26.4 47.1529 25.888C46.7263 25.376 46.1449 25.12 45.4089 25.12C44.9183 25.12 44.4916 25.2373 44.1289 25.472C43.7769 25.696 43.4996 26.032 43.2969 26.48C43.1049 26.9173 43.0089 27.4613 43.0089 28.112C43.0089 29.072 43.2276 29.8133 43.6649 30.336C44.1023 30.848 44.6836 31.104 45.4089 31.104ZM53.5156 32.144C52.9822 32.144 52.5022 32.0427 52.0756 31.84C51.6596 31.6267 51.3289 31.3387 51.0836 30.976C50.8382 30.6133 50.7156 30.208 50.7156 29.76C50.7156 29.184 50.8596 28.7307 51.1476 28.4C51.4462 28.0693 51.9316 27.8347 52.6036 27.696C53.2862 27.5573 54.2142 27.488 55.3876 27.488H56.1076V28.336H55.4036C54.5396 28.336 53.8569 28.3787 53.3556 28.464C52.8649 28.5387 52.5182 28.672 52.3156 28.864C52.1236 29.056 52.0276 29.328 52.0276 29.68C52.0276 30.1173 52.1769 30.4747 52.4756 30.752C52.7849 31.0293 53.2009 31.168 53.7236 31.168C54.1502 31.168 54.5236 31.0667 54.8436 30.864C55.1742 30.6613 55.4302 30.384 55.6116 30.032C55.8036 29.68 55.8996 29.2747 55.8996 28.816V26.992C55.8996 26.3307 55.7662 25.856 55.4996 25.568C55.2329 25.2693 54.7956 25.12 54.1876 25.12C53.8142 25.12 53.4409 25.168 53.0676 25.264C52.6942 25.36 52.2996 25.5147 51.8836 25.728C51.7342 25.8027 51.6062 25.8293 51.4996 25.808C51.3929 25.776 51.3076 25.7173 51.2436 25.632C51.1796 25.5467 51.1422 25.4507 51.1316 25.344C51.1209 25.2267 51.1422 25.1147 51.1956 25.008C51.2596 24.9013 51.3556 24.816 51.4836 24.752C51.9529 24.5173 52.4169 24.3467 52.8756 24.24C53.3342 24.1333 53.7716 24.08 54.1876 24.08C54.8596 24.08 55.4142 24.192 55.8516 24.416C56.2889 24.6293 56.6142 24.96 56.8276 25.408C57.0409 25.8453 57.1476 26.4107 57.1476 27.104V31.44C57.1476 31.6533 57.0942 31.8187 56.9876 31.936C56.8916 32.0533 56.7476 32.112 56.5556 32.112C56.3529 32.112 56.1982 32.0533 56.0916 31.936C55.9849 31.8187 55.9316 31.6533 55.9316 31.44V30.192H56.0756C55.9902 30.5973 55.8249 30.944 55.5796 31.232C55.3449 31.52 55.0516 31.744 54.6996 31.904C54.3476 32.064 53.9529 32.144 53.5156 32.144ZM62.5119 32.144C61.8186 32.144 61.2106 31.9787 60.6879 31.648C60.1759 31.3173 59.7759 30.8533 59.4879 30.256C59.2106 29.648 59.0719 28.9333 59.0719 28.112C59.0719 27.28 59.2106 26.5653 59.4879 25.968C59.7759 25.36 60.1759 24.896 60.6879 24.576C61.2106 24.2453 61.8186 24.08 62.5119 24.08C63.2159 24.08 63.8186 24.256 64.3199 24.608C64.8213 24.96 65.1573 25.4347 65.3279 26.032H65.1519V21.264C65.1519 21.0507 65.2053 20.8907 65.3119 20.784C65.4293 20.6667 65.5946 20.608 65.8079 20.608C66.0106 20.608 66.1653 20.6667 66.2719 20.784C66.3893 20.8907 66.4479 21.0507 66.4479 21.264V31.44C66.4479 31.6533 66.3946 31.8187 66.2879 31.936C66.1813 32.0533 66.0213 32.112 65.8079 32.112C65.6053 32.112 65.4453 32.0533 65.3279 31.936C65.2213 31.8187 65.1679 31.6533 65.1679 31.44V29.92L65.3439 30.144C65.1733 30.752 64.8319 31.2373 64.3199 31.6C63.8186 31.9627 63.2159 32.144 62.5119 32.144ZM62.7839 31.104C63.2639 31.104 63.6853 30.9867 64.0479 30.752C64.4106 30.5173 64.6879 30.176 64.8799 29.728C65.0826 29.28 65.1839 28.7413 65.1839 28.112C65.1839 27.1413 64.9653 26.4 64.5279 25.888C64.1013 25.376 63.5199 25.12 62.7839 25.12C62.2933 25.12 61.8666 25.2373 61.5039 25.472C61.1519 25.696 60.8746 26.032 60.6719 26.48C60.4799 26.9173 60.3839 27.4613 60.3839 28.112C60.3839 29.072 60.6026 29.8133 61.0399 30.336C61.4773 30.848 62.0586 31.104 62.7839 31.104Z" fill="black" fill-opacity="0.87"/>
<path d="M104.84 32.144C104.093 32.144 103.437 32.048 102.872 31.856C102.317 31.6533 101.848 31.36 101.464 30.976C101.08 30.5813 100.792 30.096 100.6 29.52C100.408 28.944 100.312 28.2827 100.312 27.536V21.28C100.312 21.056 100.365 20.8907 100.472 20.784C100.589 20.6667 100.755 20.608 100.968 20.608C101.181 20.608 101.341 20.6667 101.448 20.784C101.565 20.8907 101.624 21.056 101.624 21.28V27.472C101.624 28.6453 101.896 29.5253 102.44 30.112C102.984 30.688 103.784 30.976 104.84 30.976C105.896 30.976 106.691 30.688 107.224 30.112C107.757 29.5253 108.024 28.6453 108.024 27.472V21.28C108.024 21.056 108.083 20.8907 108.2 20.784C108.317 20.6667 108.483 20.608 108.696 20.608C108.899 20.608 109.053 20.6667 109.16 20.784C109.277 20.8907 109.336 21.056 109.336 21.28V27.536C109.336 28.528 109.165 29.3707 108.824 30.064C108.493 30.7573 107.992 31.28 107.32 31.632C106.648 31.9733 105.821 32.144 104.84 32.144ZM112.497 34.992C112.283 34.992 112.123 34.9333 112.017 34.816C111.91 34.7093 111.857 34.5493 111.857 34.336V24.768C111.857 24.5547 111.91 24.3947 112.017 24.288C112.123 24.1707 112.278 24.112 112.481 24.112C112.694 24.112 112.854 24.1707 112.961 24.288C113.078 24.3947 113.137 24.5547 113.137 24.768V26.288L112.961 26.064C113.131 25.456 113.467 24.976 113.969 24.624C114.481 24.2613 115.089 24.08 115.793 24.08C116.486 24.08 117.089 24.2453 117.601 24.576C118.123 24.896 118.523 25.36 118.801 25.968C119.089 26.5653 119.233 27.28 119.233 28.112C119.233 28.9333 119.089 29.648 118.801 30.256C118.523 30.8533 118.129 31.3173 117.617 31.648C117.105 31.9787 116.497 32.144 115.793 32.144C115.089 32.144 114.486 31.968 113.985 31.616C113.483 31.2533 113.142 30.7733 112.961 30.176H113.153V34.336C113.153 34.5493 113.094 34.7093 112.977 34.816C112.859 34.9333 112.699 34.992 112.497 34.992ZM115.521 31.104C116.011 31.104 116.433 30.9867 116.785 30.752C117.147 30.5173 117.425 30.176 117.617 29.728C117.819 29.28 117.921 28.7413 117.921 28.112C117.921 27.1413 117.702 26.4 117.265 25.888C116.838 25.376 116.257 25.12 115.521 25.12C115.041 25.12 114.619 25.2373 114.257 25.472C113.894 25.696 113.611 26.032 113.409 26.48C113.217 26.9173 113.121 27.4613 113.121 28.112C113.121 29.072 113.339 29.8133 113.777 30.336C114.214 30.848 114.795 31.104 115.521 31.104ZM123.553 32.144C122.785 32.144 122.198 31.9093 121.793 31.44C121.387 30.9707 121.185 30.2987 121.185 29.424V21.264C121.185 21.0507 121.238 20.8907 121.345 20.784C121.451 20.6667 121.611 20.608 121.825 20.608C122.027 20.608 122.187 20.6667 122.305 20.784C122.422 20.8907 122.481 21.0507 122.481 21.264V29.328C122.481 29.904 122.593 30.336 122.817 30.624C123.051 30.9013 123.393 31.04 123.841 31.04C123.937 31.04 124.022 31.0347 124.097 31.024C124.171 31.0133 124.246 31.008 124.321 31.008C124.438 30.9973 124.518 31.024 124.561 31.088C124.614 31.152 124.641 31.28 124.641 31.472C124.641 31.664 124.598 31.808 124.513 31.904C124.427 32 124.289 32.064 124.097 32.096C124.011 32.1067 123.921 32.1173 123.825 32.128C123.729 32.1387 123.638 32.144 123.553 32.144ZM129.073 32.144C128.316 32.144 127.66 31.9787 127.105 31.648C126.55 31.3173 126.118 30.8533 125.809 30.256C125.51 29.648 125.361 28.9333 125.361 28.112C125.361 27.4933 125.446 26.9387 125.617 26.448C125.788 25.9467 126.038 25.52 126.369 25.168C126.7 24.816 127.089 24.5493 127.537 24.368C127.996 24.176 128.508 24.08 129.073 24.08C129.83 24.08 130.486 24.2453 131.041 24.576C131.596 24.9067 132.022 25.376 132.321 25.984C132.63 26.5813 132.785 27.2907 132.785 28.112C132.785 28.7307 132.7 29.2853 132.529 29.776C132.358 30.2667 132.108 30.6933 131.777 31.056C131.446 31.408 131.052 31.68 130.593 31.872C130.145 32.0533 129.638 32.144 129.073 32.144ZM129.073 31.104C129.553 31.104 129.974 30.9867 130.337 30.752C130.7 30.5173 130.977 30.176 131.169 29.728C131.372 29.28 131.473 28.7413 131.473 28.112C131.473 27.1413 131.254 26.4 130.817 25.888C130.39 25.376 129.809 25.12 129.073 25.12C128.582 25.12 128.156 25.2373 127.793 25.472C127.441 25.696 127.164 26.032 126.961 26.48C126.769 26.9173 126.673 27.4613 126.673 28.112C126.673 29.072 126.892 29.8133 127.329 30.336C127.766 30.848 128.348 31.104 129.073 31.104ZM137.18 32.144C136.646 32.144 136.166 32.0427 135.74 31.84C135.324 31.6267 134.993 31.3387 134.748 30.976C134.502 30.6133 134.38 30.208 134.38 29.76C134.38 29.184 134.524 28.7307 134.812 28.4C135.11 28.0693 135.596 27.8347 136.268 27.696C136.95 27.5573 137.878 27.488 139.052 27.488H139.772V28.336H139.068C138.204 28.336 137.521 28.3787 137.02 28.464C136.529 28.5387 136.182 28.672 135.98 28.864C135.788 29.056 135.692 29.328 135.692 29.68C135.692 30.1173 135.841 30.4747 136.14 30.752C136.449 31.0293 136.865 31.168 137.388 31.168C137.814 31.168 138.188 31.0667 138.508 30.864C138.838 30.6613 139.094 30.384 139.276 30.032C139.468 29.68 139.564 29.2747 139.564 28.816V26.992C139.564 26.3307 139.43 25.856 139.164 25.568C138.897 25.2693 138.46 25.12 137.852 25.12C137.478 25.12 137.105 25.168 136.732 25.264C136.358 25.36 135.964 25.5147 135.548 25.728C135.398 25.8027 135.27 25.8293 135.164 25.808C135.057 25.776 134.972 25.7173 134.908 25.632C134.844 25.5467 134.806 25.4507 134.796 25.344C134.785 25.2267 134.806 25.1147 134.86 25.008C134.924 24.9013 135.02 24.816 135.148 24.752C135.617 24.5173 136.081 24.3467 136.54 24.24C136.998 24.1333 137.436 24.08 137.852 24.08C138.524 24.08 139.078 24.192 139.516 24.416C139.953 24.6293 140.278 24.96 140.492 25.408C140.705 25.8453 140.812 26.4107 140.812 27.104V31.44C140.812 31.6533 140.758 31.8187 140.652 31.936C140.556 32.0533 140.412 32.112 140.22 32.112C140.017 32.112 139.862 32.0533 139.756 31.936C139.649 31.8187 139.596 31.6533 139.596 31.44V30.192H139.74C139.654 30.5973 139.489 30.944 139.244 31.232C139.009 31.52 138.716 31.744 138.364 31.904C138.012 32.064 137.617 32.144 137.18 32.144ZM146.176 32.144C145.483 32.144 144.875 31.9787 144.352 31.648C143.84 31.3173 143.44 30.8533 143.152 30.256C142.875 29.648 142.736 28.9333 142.736 28.112C142.736 27.28 142.875 26.5653 143.152 25.968C143.44 25.36 143.84 24.896 144.352 24.576C144.875 24.2453 145.483 24.08 146.176 24.08C146.88 24.08 147.483 24.256 147.984 24.608C148.485 24.96 148.821 25.4347 148.992 26.032H148.816V21.264C148.816 21.0507 148.869 20.8907 148.976 20.784C149.093 20.6667 149.259 20.608 149.472 20.608C149.675 20.608 149.829 20.6667 149.936 20.784C150.053 20.8907 150.112 21.0507 150.112 21.264V31.44C150.112 31.6533 150.059 31.8187 149.952 31.936C149.845 32.0533 149.685 32.112 149.472 32.112C149.269 32.112 149.109 32.0533 148.992 31.936C148.885 31.8187 148.832 31.6533 148.832 31.44V29.92L149.008 30.144C148.837 30.752 148.496 31.2373 147.984 31.6C147.483 31.9627 146.88 32.144 146.176 32.144ZM146.448 31.104C146.928 31.104 147.349 30.9867 147.712 30.752C148.075 30.5173 148.352 30.176 148.544 29.728C148.747 29.28 148.848 28.7413 148.848 28.112C148.848 27.1413 148.629 26.4 148.192 25.888C147.765 25.376 147.184 25.12 146.448 25.12C145.957 25.12 145.531 25.2373 145.168 25.472C144.816 25.696 144.539 26.032 144.336 26.48C144.144 26.9173 144.048 27.4613 144.048 28.112C144.048 29.072 144.267 29.8133 144.704 30.336C145.141 30.848 145.723 31.104 146.448 31.104ZM158.397 34.992C158.237 34.992 158.109 34.9493 158.013 34.864C157.917 34.7787 157.858 34.6613 157.837 34.512C157.826 34.3733 157.853 34.2293 157.917 34.08L159.021 31.6V32.16L155.949 25.024C155.885 24.864 155.864 24.7147 155.885 24.576C155.906 24.4373 155.97 24.3253 156.077 24.24C156.184 24.1547 156.333 24.112 156.525 24.112C156.696 24.112 156.829 24.1493 156.925 24.224C157.021 24.2987 157.106 24.432 157.181 24.624L159.805 31.056H159.373L162.029 24.624C162.114 24.432 162.205 24.2987 162.301 24.224C162.397 24.1493 162.536 24.112 162.717 24.112C162.888 24.112 163.016 24.1547 163.101 24.24C163.197 24.3253 163.25 24.4373 163.261 24.576C163.282 24.704 163.261 24.848 163.197 25.008L159.101 34.48C159.016 34.672 158.92 34.8053 158.813 34.88C158.717 34.9547 158.578 34.992 158.397 34.992ZM168.011 32.144C167.253 32.144 166.597 31.9787 166.043 31.648C165.488 31.3173 165.056 30.8533 164.747 30.256C164.448 29.648 164.299 28.9333 164.299 28.112C164.299 27.4933 164.384 26.9387 164.555 26.448C164.725 25.9467 164.976 25.52 165.307 25.168C165.637 24.816 166.027 24.5493 166.475 24.368C166.933 24.176 167.445 24.08 168.011 24.08C168.768 24.08 169.424 24.2453 169.979 24.576C170.533 24.9067 170.96 25.376 171.259 25.984C171.568 26.5813 171.723 27.2907 171.723 28.112C171.723 28.7307 171.637 29.2853 171.467 29.776C171.296 30.2667 171.045 30.6933 170.715 31.056C170.384 31.408 169.989 31.68 169.531 31.872C169.083 32.0533 168.576 32.144 168.011 32.144ZM168.011 31.104C168.491 31.104 168.912 30.9867 169.275 30.752C169.637 30.5173 169.915 30.176 170.107 29.728C170.309 29.28 170.411 28.7413 170.411 28.112C170.411 27.1413 170.192 26.4 169.755 25.888C169.328 25.376 168.747 25.12 168.011 25.12C167.52 25.12 167.093 25.2373 166.731 25.472C166.379 25.696 166.101 26.032 165.899 26.48C165.707 26.9173 165.611 27.4613 165.611 28.112C165.611 29.072 165.829 29.8133 166.267 30.336C166.704 30.848 167.285 31.104 168.011 31.104ZM176.421 32.144C175.792 32.144 175.269 32.032 174.853 31.808C174.448 31.5733 174.138 31.2267 173.925 30.768C173.722 30.3093 173.621 29.7387 173.621 29.056V24.768C173.621 24.544 173.674 24.3787 173.781 24.272C173.898 24.1653 174.058 24.112 174.261 24.112C174.474 24.112 174.634 24.1653 174.741 24.272C174.858 24.3787 174.917 24.544 174.917 24.768V29.04C174.917 29.7227 175.056 30.2347 175.333 30.576C175.621 30.9067 176.069 31.072 176.677 31.072C177.338 31.072 177.877 30.848 178.293 30.4C178.709 29.952 178.917 29.3653 178.917 28.64V24.768C178.917 24.544 178.97 24.3787 179.077 24.272C179.194 24.1653 179.36 24.112 179.573 24.112C179.776 24.112 179.93 24.1653 180.037 24.272C180.154 24.3787 180.213 24.544 180.213 24.768V31.44C180.213 31.888 180.005 32.112 179.589 32.112C179.386 32.112 179.226 32.0533 179.109 31.936C179.002 31.8187 178.949 31.6533 178.949 31.44V29.984L179.157 30.208C178.944 30.8373 178.592 31.3173 178.101 31.648C177.621 31.9787 177.061 32.144 176.421 32.144ZM183.294 32.112C183.081 32.112 182.915 32.0533 182.798 31.936C182.691 31.8187 182.638 31.6533 182.638 31.44V24.768C182.638 24.5547 182.691 24.3947 182.798 24.288C182.905 24.1707 183.059 24.112 183.262 24.112C183.465 24.112 183.619 24.1707 183.726 24.288C183.843 24.3947 183.902 24.5547 183.902 24.768V26.064H183.742C183.913 25.4347 184.238 24.9493 184.718 24.608C185.198 24.2667 185.79 24.0853 186.494 24.064C186.654 24.0533 186.782 24.0907 186.878 24.176C186.974 24.2507 187.027 24.384 187.038 24.576C187.049 24.7573 187.006 24.9013 186.91 25.008C186.814 25.1147 186.665 25.1787 186.462 25.2L186.206 25.232C185.481 25.296 184.921 25.5307 184.526 25.936C184.142 26.3307 183.95 26.8747 183.95 27.568V31.44C183.95 31.6533 183.891 31.8187 183.774 31.936C183.667 32.0533 183.507 32.112 183.294 32.112ZM193.137 34.992C192.924 34.992 192.764 34.9333 192.657 34.816C192.551 34.7093 192.497 34.5493 192.497 34.336V24.768C192.497 24.5547 192.551 24.3947 192.657 24.288C192.764 24.1707 192.919 24.112 193.121 24.112C193.335 24.112 193.495 24.1707 193.601 24.288C193.719 24.3947 193.777 24.5547 193.777 24.768V26.288L193.601 26.064C193.772 25.456 194.108 24.976 194.609 24.624C195.121 24.2613 195.729 24.08 196.433 24.08C197.127 24.08 197.729 24.2453 198.241 24.576C198.764 24.896 199.164 25.36 199.441 25.968C199.729 26.5653 199.873 27.28 199.873 28.112C199.873 28.9333 199.729 29.648 199.441 30.256C199.164 30.8533 198.769 31.3173 198.257 31.648C197.745 31.9787 197.137 32.144 196.433 32.144C195.729 32.144 195.127 31.968 194.625 31.616C194.124 31.2533 193.783 30.7733 193.601 30.176H193.793V34.336C193.793 34.5493 193.735 34.7093 193.617 34.816C193.5 34.9333 193.34 34.992 193.137 34.992ZM196.161 31.104C196.652 31.104 197.073 30.9867 197.425 30.752C197.788 30.5173 198.065 30.176 198.257 29.728C198.46 29.28 198.561 28.7413 198.561 28.112C198.561 27.1413 198.343 26.4 197.905 25.888C197.479 25.376 196.897 25.12 196.161 25.12C195.681 25.12 195.26 25.2373 194.897 25.472C194.535 25.696 194.252 26.032 194.049 26.48C193.857 26.9173 193.761 27.4613 193.761 28.112C193.761 29.072 193.98 29.8133 194.417 30.336C194.855 30.848 195.436 31.104 196.161 31.104ZM202.465 32.112C202.252 32.112 202.092 32.0533 201.985 31.936C201.879 31.8187 201.825 31.6533 201.825 31.44V21.264C201.825 21.0507 201.879 20.8907 201.985 20.784C202.092 20.6667 202.252 20.608 202.465 20.608C202.668 20.608 202.828 20.6667 202.945 20.784C203.063 20.8907 203.121 21.0507 203.121 21.264V25.952H202.913C203.137 25.3333 203.5 24.8693 204.001 24.56C204.513 24.24 205.1 24.08 205.761 24.08C206.38 24.08 206.892 24.192 207.297 24.416C207.713 24.64 208.023 24.9813 208.225 25.44C208.428 25.888 208.529 26.4587 208.529 27.152V31.44C208.529 31.6533 208.471 31.8187 208.353 31.936C208.247 32.0533 208.092 32.112 207.889 32.112C207.676 32.112 207.511 32.0533 207.393 31.936C207.287 31.8187 207.233 31.6533 207.233 31.44V27.232C207.233 26.5067 207.089 25.9787 206.801 25.648C206.524 25.3067 206.076 25.136 205.457 25.136C204.743 25.136 204.172 25.36 203.745 25.808C203.329 26.2453 203.121 26.832 203.121 27.568V31.44C203.121 31.888 202.903 32.112 202.465 32.112ZM214.151 32.144C213.394 32.144 212.738 31.9787 212.183 31.648C211.628 31.3173 211.196 30.8533 210.887 30.256C210.588 29.648 210.439 28.9333 210.439 28.112C210.439 27.4933 210.524 26.9387 210.695 26.448C210.866 25.9467 211.116 25.52 211.447 25.168C211.778 24.816 212.167 24.5493 212.615 24.368C213.074 24.176 213.586 24.08 214.151 24.08C214.908 24.08 215.564 24.2453 216.119 24.576C216.674 24.9067 217.1 25.376 217.399 25.984C217.708 26.5813 217.863 27.2907 217.863 28.112C217.863 28.7307 217.778 29.2853 217.607 29.776C217.436 30.2667 217.186 30.6933 216.855 31.056C216.524 31.408 216.13 31.68 215.671 31.872C215.223 32.0533 214.716 32.144 214.151 32.144ZM214.151 31.104C214.631 31.104 215.052 30.9867 215.415 30.752C215.778 30.5173 216.055 30.176 216.247 29.728C216.45 29.28 216.551 28.7413 216.551 28.112C216.551 27.1413 216.332 26.4 215.895 25.888C215.468 25.376 214.887 25.12 214.151 25.12C213.66 25.12 213.234 25.2373 212.871 25.472C212.519 25.696 212.242 26.032 212.039 26.48C211.847 26.9173 211.751 27.4613 211.751 28.112C211.751 29.072 211.97 29.8133 212.407 30.336C212.844 30.848 213.426 31.104 214.151 31.104ZM222.852 32.144C222.244 32.144 221.732 32.0373 221.316 31.824C220.91 31.6 220.606 31.28 220.404 30.864C220.201 30.4373 220.1 29.92 220.1 29.312V25.232H219.028C218.846 25.232 218.708 25.1893 218.612 25.104C218.516 25.008 218.468 24.88 218.468 24.72C218.468 24.56 218.516 24.4373 218.612 24.352C218.708 24.2667 218.846 24.224 219.028 24.224H220.1V22.384C220.1 22.1707 220.158 22.0107 220.276 21.904C220.393 21.7867 220.553 21.728 220.756 21.728C220.958 21.728 221.113 21.7867 221.22 21.904C221.337 22.0107 221.396 22.1707 221.396 22.384V24.224H223.412C223.593 24.224 223.732 24.2667 223.828 24.352C223.924 24.4373 223.972 24.56 223.972 24.72C223.972 24.88 223.924 25.008 223.828 25.104C223.732 25.1893 223.593 25.232 223.412 25.232H221.396V29.184C221.396 29.792 221.524 30.256 221.78 30.576C222.036 30.8853 222.452 31.04 223.028 31.04C223.23 31.04 223.401 31.0187 223.54 30.976C223.689 30.9333 223.812 30.912 223.908 30.912C224.004 30.9013 224.084 30.9333 224.148 31.008C224.212 31.0827 224.244 31.2107 224.244 31.392C224.244 31.52 224.217 31.6373 224.164 31.744C224.121 31.8507 224.041 31.9253 223.924 31.968C223.796 32.0107 223.625 32.048 223.412 32.08C223.209 32.1227 223.022 32.144 222.852 32.144ZM228.479 32.144C227.722 32.144 227.066 31.9787 226.511 31.648C225.957 31.3173 225.525 30.8533 225.215 30.256C224.917 29.648 224.767 28.9333 224.767 28.112C224.767 27.4933 224.853 26.9387 225.023 26.448C225.194 25.9467 225.445 25.52 225.775 25.168C226.106 24.816 226.495 24.5493 226.943 24.368C227.402 24.176 227.914 24.08 228.479 24.08C229.237 24.08 229.893 24.2453 230.447 24.576C231.002 24.9067 231.429 25.376 231.727 25.984C232.037 26.5813 232.191 27.2907 232.191 28.112C232.191 28.7307 232.106 29.2853 231.935 29.776C231.765 30.2667 231.514 30.6933 231.183 31.056C230.853 31.408 230.458 31.68 229.999 31.872C229.551 32.0533 229.045 32.144 228.479 32.144ZM228.479 31.104C228.959 31.104 229.381 30.9867 229.743 30.752C230.106 30.5173 230.383 30.176 230.575 29.728C230.778 29.28 230.879 28.7413 230.879 28.112C230.879 27.1413 230.661 26.4 230.223 25.888C229.797 25.376 229.215 25.12 228.479 25.12C227.989 25.12 227.562 25.2373 227.199 25.472C226.847 25.696 226.57 26.032 226.367 26.48C226.175 26.9173 226.079 27.4613 226.079 28.112C226.079 29.072 226.298 29.8133 226.735 30.336C227.173 30.848 227.754 31.104 228.479 31.104Z" fill="#7E7E7E"/>
</svg>
